<svg xmlns="http://www.w3.org/2000/svg" xmlns:xlink="http://www.w3.org/1999/xlink" width="605" height="125" viewBox="0 0 605 125">
  <defs>
    <filter id="Surface" x="461" y="0" width="144" height="125" filterUnits="userSpaceOnUse">
      <feOffset dy="2" input="SourceAlpha"/>
      <feGaussianBlur stdDeviation="7.5" result="blur"/>
      <feFlood flood-opacity="0.149"/>
      <feComposite operator="in" in2="blur"/>
      <feComposite in="SourceGraphic"/>
    </filter>
    <filter id="Left" x="0" y="0" width="508" height="125" filterUnits="userSpaceOnUse">
      <feOffset dy="2" input="SourceAlpha"/>
      <feGaussianBlur stdDeviation="7.5" result="blur-2"/>
      <feFlood flood-opacity="0.149"/>
      <feComposite operator="in" in2="blur-2"/>
      <feComposite in="SourceGraphic"/>
    </filter>
  </defs>
  <g id="쿠폰모양" transform="translate(-159.5 26.501)">
    <g transform="matrix(1, 0, 0, 1, 159.5, -26.5)" filter="url(#Surface)">
      <g id="Surface-2" data-name="Surface" transform="translate(-1614.5 877.5)" fill="#5263e0">
        <path d="M 2196 -778.0005493164062 L 2110.962158203125 -778.0006103515625 C 2110.728271484375 -781.0970458984375 2109.410400390625 -783.9757690429688 2107.192138671875 -786.19384765625 C 2104.974365234375 -788.4118041992188 2102.095703125 -789.7296752929688 2099 -789.963623046875 L 2099 -844.038330078125 C 2099.413330078125 -844.0697021484375 2099.8251953125 -844.1207275390625 2100.23193359375 -844.191162109375 C 2102.5478515625 -844.5896606445312 2104.715087890625 -845.6170043945312 2106.498046875 -847.1619262695312 C 2106.97802734375 -847.576904296875 2107.432373046875 -848.0317993164062 2107.84765625 -848.5132446289062 L 2107.850341796875 -848.51611328125 L 2107.852783203125 -848.51904296875 L 2107.857666015625 -848.5247802734375 L 2107.862060546875 -848.52978515625 L 2107.86865234375 -848.537353515625 L 2107.877197265625 -848.54736328125 L 2107.884033203125 -848.5552978515625 C 2109.696044921875 -850.670166015625 2110.75439453125 -853.2346801757812 2110.962158203125 -855.9998168945312 L 2196 -856.000732421875 L 2196 -851.89990234375 C 2195.4990234375 -851.7977905273438 2195.01611328125 -851.6198120117188 2194.57080078125 -851.3712158203125 L 2194.567626953125 -851.3694458007812 L 2194.563720703125 -851.3673095703125 L 2194.557373046875 -851.3638916015625 L 2194.55126953125 -851.3604125976562 L 2194.5400390625 -851.3540649414062 L 2194.534423828125 -851.350830078125 L 2194.52880859375 -851.3475341796875 L 2194.526611328125 -851.3463134765625 C 2193.72314453125 -850.8882446289062 2193.063232421875 -850.21826171875 2192.61767578125 -849.4085083007812 L 2192.610595703125 -849.3953857421875 L 2192.596435546875 -849.3695678710938 L 2192.59423828125 -849.365234375 L 2192.591796875 -849.36083984375 L 2192.590576171875 -849.358642578125 L 2192.59033203125 -849.3578491210938 L 2192.584228515625 -849.3468017578125 L 2192.578369140625 -849.3356323242188 L 2192.574951171875 -849.3291015625 L 2192.567626953125 -849.3152465820312 L 2192.55078125 -849.2825317382812 C 2192.18994140625 -848.5802612304688 2192.000244140625 -847.7928466796875 2192.000244140625 -847.001708984375 C 2192.000244140625 -844.58642578125 2193.720703125 -842.5655517578125 2196 -842.1007690429688 L 2196 -839.9002075195312 C 2195.49951171875 -839.7981567382812 2195.0166015625 -839.6203002929688 2194.571533203125 -839.3718872070312 L 2194.570068359375 -839.3712158203125 L 2194.56298828125 -839.3671875 L 2194.5556640625 -839.3630981445312 L 2194.5439453125 -839.3564453125 L 2194.525146484375 -839.3458251953125 L 2194.518798828125 -839.3422241210938 L 2194.515380859375 -839.3401489257812 L 2194.51171875 -839.3380737304688 L 2194.494140625 -839.3279418945312 L 2194.489501953125 -839.3253784179688 L 2194.485107421875 -839.3226928710938 L 2194.48095703125 -839.3202514648438 C 2193.664306640625 -838.843017578125 2193.001708984375 -838.1478881835938 2192.564697265625 -837.3096923828125 L 2192.56298828125 -837.3064575195312 L 2192.561279296875 -837.30322265625 L 2192.561279296875 -837.302978515625 L 2192.560302734375 -837.30126953125 L 2192.553466796875 -837.2882080078125 L 2192.546875 -837.27490234375 L 2192.54541015625 -837.2723388671875 L 2192.54345703125 -837.2683715820312 L 2192.524658203125 -837.2312622070312 L 2192.523193359375 -837.2281494140625 L 2192.521484375 -837.2250366210938 C 2192.175537109375 -836.5301513671875 2192.000244140625 -835.7819213867188 2192.000244140625 -835.0010986328125 C 2192.000244140625 -832.5863037109375 2193.720703125 -830.5657348632812 2196 -830.10107421875 L 2196 -827.8995971679688 C 2195.4990234375 -827.7974853515625 2195.01611328125 -827.6195068359375 2194.57080078125 -827.3709106445312 L 2194.56884765625 -827.3698120117188 L 2194.5625 -827.3663330078125 L 2194.5546875 -827.3619995117188 L 2194.546630859375 -827.3574829101562 L 2194.53564453125 -827.3511962890625 L 2194.529296875 -827.3475341796875 C 2193.7255859375 -826.8901977539062 2193.064208984375 -826.2194213867188 2192.617919921875 -825.4083862304688 L 2192.61572265625 -825.4044799804688 L 2192.613525390625 -825.4005126953125 L 2192.611572265625 -825.3969116210938 C 2192.604248046875 -825.3837280273438 2192.59716796875 -825.3704833984375 2192.590087890625 -825.3572387695312 L 2192.580322265625 -825.3399658203125 L 2192.572509765625 -825.3239135742188 L 2192.56982421875 -825.3190307617188 L 2192.564453125 -825.3090209960938 L 2192.56005859375 -825.3005981445312 L 2192.5556640625 -825.2920532226562 L 2192.546875 -825.2747802734375 C 2192.18994140625 -824.5798950195312 2192.000244140625 -823.7925415039062 2192.000244140625 -823.0014038085938 C 2192.000244140625 -820.5861206054688 2193.720703125 -818.5652465820312 2196 -818.1004638671875 L 2196 -815.89990234375 C 2195.4990234375 -815.7977905273438 2195.01611328125 -815.6198120117188 2194.57080078125 -815.3712158203125 L 2194.567626953125 -815.3694458007812 L 2194.563720703125 -815.3673095703125 L 2194.556396484375 -815.36328125 L 2194.549072265625 -815.3591918945312 L 2194.5400390625 -815.3540649414062 L 2194.537841796875 -815.352783203125 L 2194.53564453125 -815.3515625 L 2194.526611328125 -815.3463745117188 C 2193.7255859375 -814.890380859375 2193.064208984375 -814.2196655273438 2192.617919921875 -813.40869140625 L 2192.615478515625 -813.4044189453125 L 2192.61328125 -813.4000854492188 L 2192.613037109375 -813.3997802734375 L 2192.61181640625 -813.3978271484375 L 2192.606201171875 -813.3876342773438 L 2192.6005859375 -813.3773193359375 L 2192.593017578125 -813.3631591796875 L 2192.591064453125 -813.3592529296875 L 2192.59033203125 -813.3582763671875 L 2192.58349609375 -813.3460083007812 L 2192.57373046875 -813.3267211914062 C 2192.5615234375 -813.3038940429688 2192.552734375 -813.2870483398438 2192.544921875 -813.2711181640625 C 2192.1884765625 -812.574462890625 2192.000244140625 -811.7899169921875 2192.000244140625 -811.001708984375 C 2192.000244140625 -808.58642578125 2193.720703125 -806.5655517578125 2196 -806.1007690429688 L 2196 -803.9002075195312 C 2195.499267578125 -803.7981567382812 2195.0166015625 -803.620361328125 2194.571533203125 -803.3718872070312 L 2194.570068359375 -803.3712158203125 L 2194.562255859375 -803.3668823242188 L 2194.554443359375 -803.3624877929688 L 2194.53955078125 -803.35400390625 L 2194.52587890625 -803.34619140625 L 2194.518798828125 -803.3422241210938 L 2194.515380859375 -803.3401489257812 L 2194.51171875 -803.3380737304688 L 2194.494140625 -803.3279418945312 L 2194.489501953125 -803.3253784179688 L 2194.485107421875 -803.3226928710938 L 2194.48095703125 -803.3202514648438 C 2193.664306640625 -802.843017578125 2193.001708984375 -802.1478881835938 2192.564697265625 -801.3096923828125 L 2192.55908203125 -801.2987060546875 L 2192.5576171875 -801.2960205078125 L 2192.550048828125 -801.2816772460938 L 2192.54541015625 -801.2721557617188 L 2192.54443359375 -801.2703247070312 L 2192.541259765625 -801.2640380859375 L 2192.524658203125 -801.2312622070312 L 2192.523193359375 -801.2281494140625 L 2192.521484375 -801.2250366210938 C 2192.175537109375 -800.5301513671875 2192.000244140625 -799.7819213867188 2192.000244140625 -799.0010986328125 C 2192.000244140625 -796.5863037109375 2193.720703125 -794.5657348632812 2196 -794.10107421875 L 2196 -791.8995971679688 C 2195.4990234375 -791.7974853515625 2195.01611328125 -791.6195068359375 2194.57080078125 -791.3709106445312 L 2194.56884765625 -791.3698120117188 L 2194.5625 -791.3663330078125 L 2194.555908203125 -791.3627319335938 L 2194.54931640625 -791.3589477539062 L 2194.53759765625 -791.352294921875 L 2194.5341796875 -791.3504638671875 L 2194.531005859375 -791.3485717773438 L 2194.527099609375 -791.3462524414062 C 2193.723876953125 -790.8883666992188 2193.063720703125 -790.2183227539062 2192.617919921875 -789.4083862304688 L 2192.615478515625 -789.4041137695312 L 2192.6142578125 -789.4017944335938 L 2192.60986328125 -789.3941650390625 L 2192.603759765625 -789.3827514648438 L 2192.59423828125 -789.3650512695312 L 2192.591552734375 -789.3600463867188 L 2192.590576171875 -789.3580322265625 L 2192.585205078125 -789.3489379882812 L 2192.57666015625 -789.3323364257812 L 2192.5732421875 -789.3257446289062 L 2192.5703125 -789.3201293945312 L 2192.568115234375 -789.3160400390625 C 2192.55859375 -789.2978515625 2192.552001953125 -789.2852783203125 2192.546142578125 -789.2734375 C 2192.18896484375 -788.576171875 2192.000244140625 -787.7906494140625 2192.000244140625 -787.0014038085938 C 2192.000244140625 -784.5861206054688 2193.720703125 -782.5652465820312 2196 -782.1004638671875 L 2196 -778.0005493164062 Z" stroke="none"/>
        <path d="M 2195 -779.0005493164062 L 2195 -781.3428344726562 C 2192.671875 -782.16845703125 2191.000244140625 -784.3932495117188 2191.000244140625 -787.0014038085938 C 2191.000244140625 -787.9483642578125 2191.22705078125 -788.8912963867188 2191.656005859375 -789.72900390625 C 2191.663330078125 -789.7435302734375 2191.671630859375 -789.7594604492188 2191.68310546875 -789.7816162109375 L 2191.68896484375 -789.7927856445312 L 2191.74169921875 -789.8905639648438 C 2192.2763671875 -790.8616333007812 2193.067626953125 -791.6650390625 2194.030517578125 -792.2142333984375 L 2194.088134765625 -792.2467651367188 L 2194.088134765625 -792.2467041015625 C 2194.380126953125 -792.4093627929688 2194.685302734375 -792.5466918945312 2195 -792.6577758789062 L 2195 -793.3433837890625 C 2192.671875 -794.1688842773438 2191.000244140625 -796.3933715820312 2191.000244140625 -799.0010986328125 C 2191.000244140625 -799.9379272460938 2191.2109375 -800.8361206054688 2191.626220703125 -801.670654296875 L 2191.677978515625 -801.7720336914062 C 2192.2021484375 -802.777099609375 2192.996337890625 -803.6107177734375 2193.9755859375 -804.18310546875 L 2194.089111328125 -804.2478637695312 C 2194.380615234375 -804.4102172851562 2194.685546875 -804.5474243164062 2195 -804.6583862304688 L 2195 -805.3431396484375 C 2192.671875 -806.1687622070312 2191.000244140625 -808.3936157226562 2191.000244140625 -811.001708984375 C 2191.000244140625 -811.9458618164062 2191.2255859375 -812.8861694335938 2191.65234375 -813.7220458984375 C 2191.662109375 -813.7418212890625 2191.6728515625 -813.762939453125 2191.687255859375 -813.789794921875 L 2191.74169921875 -813.8909301757812 C 2192.2763671875 -814.86181640625 2193.0673828125 -815.6651000976562 2194.030029296875 -816.21435546875 L 2194.084716796875 -816.2451171875 C 2194.377685546875 -816.4085693359375 2194.68408203125 -816.5465698242188 2195 -816.6580810546875 L 2195 -817.3428344726562 C 2192.671875 -818.16845703125 2191.000244140625 -820.393310546875 2191.000244140625 -823.0014038085938 C 2191.000244140625 -823.9490356445312 2191.227294921875 -824.892822265625 2191.656982421875 -825.73095703125 L 2191.7119140625 -825.835693359375 C 2191.71923828125 -825.8494262695312 2191.726806640625 -825.8632202148438 2191.734375 -825.8768920898438 L 2191.74169921875 -825.8905639648438 C 2192.27734375 -826.8634033203125 2193.070556640625 -827.6679077148438 2194.0390625 -828.2191772460938 L 2194.088134765625 -828.2467651367188 L 2194.088134765625 -828.2467041015625 C 2194.380126953125 -828.4093627929688 2194.685302734375 -828.5466918945312 2195 -828.6577758789062 L 2195 -829.3433837890625 C 2192.671875 -830.1688842773438 2191.000244140625 -832.3933715820312 2191.000244140625 -835.0010986328125 C 2191.000244140625 -835.9379272460938 2191.2109375 -836.8361206054688 2191.626220703125 -837.670654296875 L 2191.677978515625 -837.7720336914062 C 2192.2021484375 -838.777099609375 2192.996337890625 -839.6107177734375 2193.9755859375 -840.18310546875 L 2194.0888671875 -840.2477416992188 C 2194.380615234375 -840.41015625 2194.685546875 -840.5474243164062 2195 -840.6583862304688 L 2195 -841.3431396484375 C 2192.671875 -842.1687622070312 2191.000244140625 -844.3936157226562 2191.000244140625 -847.001708984375 C 2191.000244140625 -847.9510498046875 2191.22802734375 -848.8964233398438 2191.6591796875 -849.7356567382812 L 2191.741455078125 -849.8905029296875 C 2192.27587890625 -850.8616943359375 2193.0673828125 -851.6653442382812 2194.03076171875 -852.2147216796875 L 2194.084716796875 -852.2451171875 C 2194.377685546875 -852.4085693359375 2194.68408203125 -852.5465698242188 2195 -852.6580810546875 L 2195 -855.000732421875 L 2111.859619140625 -854.9998168945312 C 2111.489013671875 -852.374755859375 2110.391845703125 -849.9452514648438 2108.642578125 -847.9036254882812 L 2108.60498046875 -847.8600463867188 C 2108.157958984375 -847.341796875 2107.668701171875 -846.8521118164062 2107.15283203125 -846.4061889648438 C 2105.232177734375 -844.7418823242188 2102.897216796875 -843.6350708007812 2100.402587890625 -843.205810546875 C 2100.268798828125 -843.1826782226562 2100.134521484375 -843.1614990234375 2100 -843.1422119140625 L 2100 -790.8604125976562 C 2102.98095703125 -790.4366455078125 2105.73291015625 -789.067626953125 2107.899169921875 -786.9009399414062 C 2110.066162109375 -784.7343139648438 2111.435302734375 -781.98193359375 2111.85888671875 -779.0006103515625 L 2195 -779.0005493164062 M 2197 -777.0005493164062 L 2109.999755859375 -777.0006103515625 C 2109.999755859375 -780.2066650390625 2108.751953125 -783.2200317382812 2106.485107421875 -785.4866943359375 C 2104.218994140625 -787.7530517578125 2101.20556640625 -789.001220703125 2098 -789.001220703125 L 2098 -845.0001220703125 L 2098.01806640625 -845.0010986328125 C 2098.70166015625 -845.0010986328125 2099.38916015625 -845.0601196289062 2100.061279296875 -845.176513671875 C 2102.198486328125 -845.5442504882812 2104.197998046875 -846.4921875 2105.84326171875 -847.917724609375 C 2106.287109375 -848.3014526367188 2106.706787109375 -848.7215576171875 2107.090576171875 -849.1664428710938 C 2107.096435546875 -849.17333984375 2107.102294921875 -849.18017578125 2107.1083984375 -849.1870727539062 L 2107.12548828125 -849.20703125 C 2108.895751953125 -851.2730102539062 2109.886474609375 -853.8054809570312 2109.99072265625 -856.5307006835938 C 2109.99072265625 -856.5326538085938 2109.99072265625 -856.5355834960938 2109.990966796875 -856.53759765625 L 2109.999755859375 -856.9998168945312 L 2197 -857.000732421875 L 2197 -851.0013427734375 C 2196.31689453125 -851.0003662109375 2195.646728515625 -850.82666015625 2195.058349609375 -850.4981079101562 L 2195.02490234375 -850.4793090820312 C 2194.380615234375 -850.1126708984375 2193.85107421875 -849.57568359375 2193.493896484375 -848.9264526367188 L 2193.438232421875 -848.82177734375 C 2193.151611328125 -848.2638549804688 2193.000244140625 -847.6344604492188 2193.000244140625 -847.001708984375 C 2193.000244140625 -844.7953491210938 2194.79443359375 -843.0003051757812 2197 -843.0003051757812 L 2197 -839.0016479492188 C 2196.3154296875 -839.0006713867188 2195.64404296875 -838.8262939453125 2195.0546875 -838.4963989257812 L 2194.98828125 -838.45849609375 C 2194.333251953125 -838.076416015625 2193.8017578125 -837.519287109375 2193.451416015625 -836.8473510742188 L 2193.416748046875 -836.7794189453125 C 2193.140380859375 -836.2242431640625 2193.000244140625 -835.6259765625 2193.000244140625 -835.0010986328125 C 2193.000244140625 -832.7952270507812 2194.79443359375 -831.0006103515625 2197 -831.0006103515625 L 2197 -827.0010375976562 C 2196.31689453125 -827.0000610351562 2195.646728515625 -826.8263549804688 2195.058349609375 -826.497802734375 L 2195.02490234375 -826.47900390625 C 2194.380859375 -826.1124877929688 2193.851318359375 -825.5755004882812 2193.493896484375 -824.9261474609375 L 2193.488525390625 -824.9161987304688 C 2193.48388671875 -824.9078979492188 2193.479248046875 -824.8995971679688 2193.474853515625 -824.8912353515625 L 2193.438232421875 -824.821533203125 C 2193.151611328125 -824.2635498046875 2193.000244140625 -823.6341552734375 2193.000244140625 -823.0014038085938 C 2193.000244140625 -820.7950439453125 2194.79443359375 -819 2197 -819 L 2197 -815.0013427734375 C 2196.31689453125 -815.0003662109375 2195.646728515625 -814.82666015625 2195.058349609375 -814.4981079101562 L 2195.02490234375 -814.4793090820312 C 2194.380859375 -814.1127319335938 2193.851318359375 -813.5757446289062 2193.493896484375 -812.9264526367188 L 2193.456298828125 -812.8566284179688 C 2193.4482421875 -812.8416748046875 2193.443115234375 -812.831787109375 2193.438232421875 -812.8218383789062 C 2193.151611328125 -812.2638549804688 2193.000244140625 -811.6344604492188 2193.000244140625 -811.001708984375 C 2193.000244140625 -808.7953491210938 2194.79443359375 -807.0003051757812 2197 -807.0003051757812 L 2197 -803.0016479492188 C 2196.3154296875 -803.0006713867188 2195.64404296875 -802.8262939453125 2195.0546875 -802.4963989257812 L 2194.98828125 -802.45849609375 C 2194.333251953125 -802.076416015625 2193.8017578125 -801.519287109375 2193.451416015625 -800.8473510742188 L 2193.416748046875 -800.7794189453125 C 2193.140380859375 -800.2242431640625 2193.000244140625 -799.6259765625 2193.000244140625 -799.0010986328125 C 2193.000244140625 -796.7952270507812 2194.79443359375 -795.0006103515625 2197 -795.0006103515625 L 2197 -791.0010375976562 C 2196.31689453125 -791.0000610351562 2195.646728515625 -790.8263549804688 2195.058349609375 -790.497802734375 L 2195.02490234375 -790.47900390625 C 2194.380859375 -790.1124877929688 2193.851318359375 -789.5755004882812 2193.493896484375 -788.9261474609375 L 2193.456298828125 -788.8562622070312 C 2193.44775390625 -788.8400268554688 2193.44287109375 -788.830810546875 2193.438232421875 -788.821533203125 C 2193.151611328125 -788.2635498046875 2193.000244140625 -787.6341552734375 2193.000244140625 -787.0014038085938 C 2193.000244140625 -784.7950439453125 2194.79443359375 -783 2197 -783 L 2197 -777.0005493164062 Z" stroke="none" fill="#8499ed"/>
      </g>
    </g>
    <g transform="matrix(1, 0, 0, 1, 159.5, -26.5)" filter="url(#Left)">
      <g id="Left-2" data-name="Left" transform="translate(-1614.5 880.5)" fill="#edeffe">
        <path d="M 2085.037841796875 -781.0003051757812 L 1647 -781.0003051757812 C 1642.037475585938 -781.0003051757812 1638.000122070312 -785.0376586914062 1638.000122070312 -790.000244140625 L 1638.000122070312 -849.9996337890625 C 1638.000122070312 -854.9627075195312 1642.037475585938 -859.0004272460938 1647 -859.0004272460938 L 2085.037841796875 -859.0004272460938 C 2085.271728515625 -855.9049072265625 2086.589599609375 -853.026123046875 2088.807373046875 -850.8077392578125 C 2091.262939453125 -848.3521118164062 2094.527587890625 -846.9998168945312 2098 -846.9998168945312 C 2098.33349609375 -846.9998168945312 2098.667236328125 -847.0125732421875 2098.999755859375 -847.0379028320312 L 2098.999755859375 -792.9619140625 C 2098.667236328125 -792.9872436523438 2098.333251953125 -793 2098 -793 C 2094.527587890625 -793 2091.262939453125 -791.647705078125 2088.8076171875 -789.1923217773438 C 2086.589599609375 -786.973876953125 2085.271728515625 -784.0956420898438 2085.037841796875 -781.0003051757812 Z" stroke="none"/>
        <path d="M 2084.14111328125 -782.0003051757812 C 2084.56494140625 -784.9807739257812 2085.933837890625 -787.732421875 2088.100341796875 -789.8994140625 C 2090.744873046875 -792.543701171875 2094.260498046875 -794 2097.999755859375 -794 L 2098 -845.9998168945312 C 2094.260498046875 -845.9998168945312 2090.744873046875 -847.4561767578125 2088.100341796875 -850.1007080078125 C 2085.93359375 -852.2677612304688 2084.564697265625 -855.0195922851562 2084.14111328125 -858.0004272460938 L 1647 -858.0004272460938 C 1642.5888671875 -858.0004272460938 1639.000122070312 -854.4113159179688 1639.000122070312 -849.9996337890625 L 1639.000122070312 -790.000244140625 C 1639.000122070312 -785.5890502929688 1642.5888671875 -782.0003051757812 1647 -782.0003051757812 L 2084.14111328125 -782.0003051757812 M 2086.000244140625 -780.0003051757812 L 1647 -780.0003051757812 C 1641.486083984375 -780.0003051757812 1637.000122070312 -784.4862670898438 1637.000122070312 -790.000244140625 L 1637.000122070312 -849.9996337890625 C 1637.000122070312 -855.5140991210938 1641.486083984375 -860.0004272460938 1647 -860.0004272460938 L 2086.000244140625 -860.0004272460938 C 2086.000244140625 -856.7949829101562 2087.248046875 -853.7818603515625 2089.5146484375 -851.5147705078125 C 2091.78125 -849.2481079101562 2094.794921875 -847.9998168945312 2098 -847.9998168945312 C 2098.670654296875 -847.9998168945312 2099.343505859375 -848.0556640625 2099.999755859375 -848.165771484375 L 2099.999755859375 -791.8340454101562 C 2099.345458984375 -791.94384765625 2098.6728515625 -792 2098 -792 C 2094.794677734375 -792 2091.78125 -790.7517700195312 2089.5146484375 -788.4851684570312 C 2087.248779296875 -786.2189331054688 2086.00048828125 -783.2059936523438 2086.000244140625 -780.0012817382812 L 2086.000244140625 -780.0003051757812 Z" stroke="none" fill="#8093de"/>
      </g>
    </g>
  </g>
</svg>
