<svg xmlns="http://www.w3.org/2000/svg" xmlns:xlink="http://www.w3.org/1999/xlink" width="445" height="114.999" viewBox="0 0 445 114.999">
  <defs>
    <filter id="Surface" x="283.529" y="0" width="161.471" height="114.999" filterUnits="userSpaceOnUse">
      <feOffset dy="2" input="SourceAlpha"/>
      <feGaussianBlur stdDeviation="7.5" result="blur"/>
      <feFlood flood-opacity="0.149"/>
      <feComposite operator="in" in2="blur"/>
      <feComposite in="SourceGraphic"/>
    </filter>
    <filter id="Left" x="0" y="0" width="330.882" height="114.999" filterUnits="userSpaceOnUse">
      <feOffset dy="2" input="SourceAlpha"/>
      <feGaussianBlur stdDeviation="7.5" result="blur-2"/>
      <feFlood flood-opacity="0.149"/>
      <feComposite operator="in" in2="blur-2"/>
      <feComposite in="SourceGraphic"/>
    </filter>
  </defs>
  <g id="쿠폰모양" transform="translate(22.5 20.5)">
    <g transform="matrix(1, 0, 0, 1, -22.5, -20.5)" filter="url(#Surface)">
      <g id="Surface-2" data-name="Surface" transform="translate(306.03 20.5)" fill="#5263e0">
        <path d="M 115.4708023071289 68.99931335449219 L 15.06203460693359 68.99931335449219 C 14.75620746612549 66.25157928466797 13.19169998168945 63.71488952636719 10.57963180541992 61.77193069458008 C 7.980537414550781 59.83885955810547 4.609980583190918 58.70122528076172 1.000001192092896 58.52353668212891 L 1.000001192092896 11.47526264190674 C 1.612077593803406 11.44518375396729 2.221899271011353 11.38698387145996 2.822185754776001 11.30117511749268 C 5.318893432617188 10.94655990600586 7.675447463989258 10.1066370010376 9.636170387268066 8.872329711914062 L 9.648416519165039 8.86463737487793 L 9.659478187561035 8.857637405395508 L 9.686955451965332 8.840251922607422 C 10.28152465820312 8.463375091552734 10.84144687652588 8.049098968505859 11.3520622253418 7.608375549316406 L 11.35855484008789 7.602759838104248 L 11.3956470489502 7.570606231689453 C 13.5289421081543 5.716771602630615 14.78920459747314 3.453954458236694 15.06173133850098 1.000905632972717 L 115.4708023071289 1.000030279159546 L 115.4708023071289 4.317915916442871 C 115.0177383422852 4.3801589012146 114.5771789550781 4.485458850860596 114.1532745361328 4.633129119873047 L 114.1083374023438 4.648960113525391 L 114.0829238891602 4.658052444458008 L 114.0585250854492 4.666913986206055 C 112.8289566040039 5.115591049194336 111.8430786132812 5.896344661712646 111.2815551757812 6.865683078765869 L 111.276123046875 6.87503719329834 L 111.2738342285156 6.878990650177002 L 111.2715835571289 6.882959842681885 L 111.2578964233398 6.907067775726318 L 111.256217956543 6.910006046295166 L 111.2545700073242 6.912960052490234 L 111.2433547973633 6.933021545410156 L 111.2416000366211 6.936175346374512 L 111.239860534668 6.939329147338867 L 111.2321090698242 6.953436851501465 L 111.2302322387695 6.956837177276611 L 111.228401184082 6.9602370262146 L 111.2122497558594 6.990175247192383 L 111.2104797363281 6.993467807769775 L 111.2087249755859 6.99675989151001 L 111.2061386108398 7.001636981964111 C 110.913215637207 7.554529190063477 110.7647094726562 8.142667770385742 110.7647094726562 8.74980640411377 C 110.7647094726562 9.989236831665039 111.4146194458008 11.18357563018799 112.5477676391602 12.02655982971191 C 113.3644714355469 12.63412380218506 114.377799987793 13.03162002563477 115.4708023071289 13.18253898620605 L 115.4708023071289 14.8181848526001 C 114.9525909423828 14.88915348052979 114.4526443481445 15.01614952087402 113.9752044677734 15.19820594787598 L 113.9704818725586 15.19999122619629 L 113.9673690795898 15.20117568969727 L 113.9642639160156 15.2023754119873 L 113.9309692382812 15.21525192260742 L 113.8973388671875 15.22842121124268 L 113.8846817016602 15.23345279693604 C 112.8588485717773 15.64208316802979 112.024772644043 16.27588272094727 111.4724044799805 17.06643676757812 L 111.4700012207031 17.06983757019043 L 111.4674453735352 17.0734977722168 L 111.4649124145508 17.07717514038086 L 111.4470138549805 17.1031608581543 L 111.4450454711914 17.10602188110352 L 111.4430923461914 17.1088981628418 L 111.4306030273438 17.1273136138916 L 111.4285736083984 17.13029861450195 L 111.4265670776367 17.13331413269043 L 111.4179992675781 17.14614486694336 C 110.9843215942383 17.79683685302734 110.7647094726562 18.5041446685791 110.7647094726562 19.24922180175781 C 110.7647094726562 20.4886531829834 111.4146194458008 21.68297576904297 112.5477676391602 22.52596092224121 C 113.3644714355469 23.13352394104004 114.377799987793 23.53101921081543 115.4708023071289 23.68193817138672 L 115.4708023071289 25.31751251220703 C 114.9515380859375 25.38864517211914 114.4502105712891 25.51612663269043 113.9715728759766 25.698974609375 L 113.9286193847656 25.71556091308594 L 113.9257888793945 25.71665191650391 L 113.9229583740234 25.71776008605957 L 113.9002151489258 25.72669792175293 L 113.8830337524414 25.7335147857666 C 112.7805557250977 26.17359161376953 111.8780746459961 26.89557456970215 111.3403549194336 27.76703643798828 L 111.338264465332 27.77040672302246 L 111.3358154296875 27.77434539794922 L 111.3334197998047 27.77829933166504 L 111.316276550293 27.80654525756836 L 111.3144454956055 27.80956077575684 L 111.3126449584961 27.81259155273438 L 111.3036193847656 27.82771301269531 L 111.3018798828125 27.83062171936035 L 111.3001556396484 27.83354377746582 L 111.2894592285156 27.85172843933105 L 111.2875213623047 27.85503768920898 L 111.2855834960938 27.85837554931641 L 111.2707672119141 27.8840217590332 L 111.2689208984375 27.88723754882812 L 111.2670745849609 27.89046859741211 L 111.2622451782227 27.89897537231445 L 111.2607269287109 27.90168380737305 L 111.2592010498047 27.90439033508301 L 111.2404327392578 27.93792915344238 L 111.2385864257812 27.94123649597168 L 111.2367553710938 27.94456100463867 C 110.9235229492188 28.51436042785645 110.7647094726562 29.12162208557129 110.7647094726562 29.74949836730957 C 110.7647094726562 30.98894500732422 111.4146194458008 32.18326950073242 112.5477676391602 33.02626800537109 C 113.3644714355469 33.63383102416992 114.377799987793 34.03132629394531 115.4708023071289 34.18224716186523 L 115.4708023071289 35.81787490844727 C 114.9525909423828 35.88884735107422 114.4526443481445 36.01584243774414 113.9752044677734 36.19789886474609 L 113.9704818725586 36.19968414306641 L 113.9673690795898 36.20086669921875 L 113.9642639160156 36.20206832885742 L 113.9309692382812 36.21494293212891 L 113.8973388671875 36.22811508178711 L 113.8861999511719 36.23252868652344 C 112.8588943481445 36.64174652099609 112.0248184204102 37.27552795410156 111.4724197387695 38.06606674194336 L 111.4675827026367 38.07300567626953 L 111.4470138549805 38.10286712646484 L 111.4450454711914 38.10572814941406 L 111.4430923461914 38.10860443115234 L 111.4306030273438 38.12702178955078 L 111.4287261962891 38.12977600097656 L 111.4268798828125 38.13256072998047 L 111.4183120727539 38.1453742980957 C 110.9843215942383 38.79652786254883 110.7647094726562 39.50383758544922 110.7647094726562 40.24889755249023 C 110.7647094726562 41.48834609985352 111.4146194458008 42.68266677856445 112.5477676391602 43.52566909790039 C 113.3644714355469 44.13323211669922 114.377799987793 44.53072738647461 115.4708023071289 44.68164825439453 L 115.4708023071289 46.3173942565918 C 115.0174179077148 46.37964248657227 114.5770492553711 46.48490905761719 114.1533050537109 46.63249969482422 L 114.1083374023438 46.64834594726562 L 114.1057586669922 46.64926910400391 L 114.1031875610352 46.65019226074219 L 114.0823059082031 46.65768432617188 L 114.0585250854492 46.66631317138672 C 112.828971862793 47.114990234375 111.8430786132812 47.89572906494141 111.2815551757812 48.86508178710938 L 111.2768020629883 48.87323760986328 L 111.2740325927734 48.87800598144531 L 111.2713088989258 48.88280487060547 L 111.2576141357422 48.90694427490234 L 111.2561721801758 48.90950012207031 L 111.2547225952148 48.91206741333008 L 111.2435073852539 48.93211364746094 L 111.2414474487305 48.93580627441406 L 111.2394180297852 48.93951416015625 L 111.2316589355469 48.95365142822266 L 111.2300186157227 48.9566535949707 L 111.228401184082 48.95965194702148 L 111.2122497558594 48.98958969116211 L 111.2073669433594 48.99871444702148 C 110.913200378418 49.5539436340332 110.7647094726562 50.14208221435547 110.7647094726562 50.74922180175781 C 110.7647094726562 51.98865127563477 111.4146194458008 53.18297576904297 112.5477676391602 54.02595901489258 C 113.3644714355469 54.63352203369141 114.377799987793 55.03102111816406 115.4708023071289 55.18193817138672 L 115.4708023071289 56.81756973266602 C 114.9512634277344 56.88871002197266 114.4501037597656 57.01615905761719 113.9716033935547 57.19894409179688 L 113.9279861450195 57.2158203125 L 113.9007568359375 57.22648239135742 L 113.8830337524414 57.23351287841797 C 112.7805709838867 57.67359161376953 111.8780899047852 58.39556121826172 111.3403549194336 59.26703643798828 L 111.3397521972656 59.26799011230469 L 111.3364334106445 59.27333068847656 L 111.3331680297852 59.2786979675293 L 111.316032409668 59.30697631835938 L 111.3144454956055 59.30958938598633 L 111.3128814697266 59.31222152709961 L 111.3038482666016 59.32732772827148 L 111.3018951416016 59.33058929443359 L 111.2999725341797 59.33386611938477 L 111.2892761230469 59.35206604003906 L 111.2874908447266 59.3551139831543 L 111.2857208251953 59.35816192626953 L 111.2709121704102 59.3837890625 L 111.2692947387695 59.38657379150391 L 111.267707824707 59.38937377929688 L 111.2632293701172 59.39723587036133 L 111.2612915039062 59.40063858032227 L 111.2593841552734 59.404052734375 L 111.2402648925781 59.43825149536133 L 111.2384948730469 59.44140625 L 111.2367553710938 59.44457626342773 C 110.9235229492188 60.01438903808594 110.7647094726562 60.62166595458984 110.7647094726562 61.24951553344727 C 110.7647094726562 62.48876190185547 111.4146499633789 63.68288421630859 112.5478591918945 64.52569580078125 C 113.3645553588867 65.13309478759766 114.3778228759766 65.53047943115234 115.4708023071289 65.68135070800781 L 115.4708023071289 68.99931335449219 Z" stroke="none"/>
        <path d="M 114.4708023071289 67.99931335449219 L 114.4708023071289 66.51010894775391 C 111.7163925170898 65.82783508300781 109.7647018432617 63.76010513305664 109.7647018432617 61.24951553344727 C 109.7647018432617 60.45131301879883 109.9651336669922 59.68198013305664 110.3604354858398 58.96286392211914 L 110.4906921386719 58.73970413208008 C 111.1404342651367 57.68798446655273 112.2129211425781 56.82346725463867 113.5137481689453 56.30421447753906 L 113.6147308349609 56.26479721069336 C 113.8835372924805 56.162109375 114.1582565307617 56.07466125488281 114.4383697509766 56.0025634765625 C 111.7012786865234 55.31192779541016 109.7647018432617 53.2502326965332 109.7647018432617 50.74921417236328 C 109.7647018432617 49.97716522216797 109.9523544311523 49.23151397705078 110.3233489990234 48.53128051757812 L 110.4162673950195 48.36383056640625 C 111.0950012207031 47.19213104248047 112.2664337158203 46.25576400756836 113.7171478271484 45.72637939453125 L 113.8243865966797 45.68814849853516 C 114.026237487793 45.61783981323242 114.2312088012695 45.55592727661133 114.4390258789062 45.50244522094727 C 111.7016143798828 44.81196212768555 109.7647018432617 42.75011825561523 109.7647018432617 40.24889755249023 C 109.7647018432617 39.30296325683594 110.0408020019531 38.40908050537109 110.5861511230469 37.5908317565918 L 110.652702331543 37.49331283569336 C 111.3172836303711 36.54217910766602 112.3068695068359 35.78519821166992 113.5183715820312 35.30264663696289 L 113.6189346313477 35.26349639892578 C 113.8864288330078 35.16150283813477 114.1597137451172 35.07460403442383 114.4383850097656 35.00288009643555 C 111.7012939453125 34.3122444152832 109.7647018432617 32.25053024291992 109.7647018432617 29.74949645996094 C 109.7647018432617 28.95129776000977 109.9651336669922 28.18196296691895 110.3604354858398 27.46284675598145 L 110.4893188476562 27.24193000793457 C 111.1389007568359 26.18916320800781 112.2119522094727 25.3238468170166 113.5118026733398 24.80498123168945 L 113.6146697998047 24.76482963562012 C 113.8835220336914 24.66211700439453 114.1582641601562 24.57465744018555 114.4383010864258 24.5025463104248 C 111.7012176513672 23.81191444396973 109.7647018432617 21.75023460388184 109.7647018432617 19.24921417236328 C 109.7647018432617 18.30329704284668 110.0408020019531 17.40941429138184 110.5861511230469 16.59113121032715 L 110.6526641845703 16.49369812011719 C 111.3172149658203 15.54254722595215 112.3068008422852 14.78554725646973 113.5150527954102 14.30428028106689 L 113.6189346313477 14.26379680633545 C 113.8864288330078 14.16180419921875 114.1597137451172 14.07490348815918 114.4383773803711 14.00318050384521 C 111.7012939453125 13.31254386901855 109.7647018432617 11.25083065032959 109.7647018432617 8.749796867370605 C 109.7647018432617 7.977747440338135 109.9523544311523 7.232097148895264 110.320686340332 6.536930561065674 L 110.4162673950195 6.36443042755127 C 111.0950164794922 5.192713737487793 112.2664489746094 4.256347179412842 113.7171478271484 3.726980447769165 L 113.8243713378906 3.688763856887817 C 114.0365142822266 3.614868879318237 114.2520904541016 3.550248146057129 114.4708023071289 3.494941234588623 L 114.4708023071289 2.000031471252441 L 15.91688823699951 2.000898122787476 C 15.43979835510254 4.361841678619385 14.12184810638428 6.526371479034424 12.05045127868652 8.326430320739746 L 12.00545120239258 8.365413665771484 C 11.45775127410889 8.838130950927734 10.85811805725098 9.281864166259766 10.22165107727051 9.685297012329102 L 10.16891765594482 9.718613624572754 C 8.089984893798828 11.02734756469727 5.597834587097168 11.9169807434082 2.963684558868408 12.29111385345459 C 2.644691467285156 12.33671379089355 2.323092699050903 12.37489986419678 2.000001192092896 12.40559101104736 L 2.000001192092896 57.59324264526367 C 5.447007179260254 57.92041015625 8.65017032623291 59.09063339233398 11.17646789550781 60.96956253051758 C 13.73744583129883 62.87451553344727 15.37358093261719 65.31986999511719 15.91709899902344 67.99931335449219 L 114.4708023071289 67.99931335449219 M 116.4708023071289 69.99941253662109 L 116.4699020385742 69.99931335449219 L 14.11740112304688 69.99931335449219 C 14.11740112304688 67.19438171386719 12.64940071105957 64.55781555175781 9.98280143737793 62.57429885864258 C 7.31640100479126 60.59116363525391 3.771117925643921 59.49899673461914 1.153564426203957e-06 59.49899673461914 L 1.153564426203957e-06 10.50029754638672 L 0.02190115302801132 10.4993143081665 C 0.9130845069885254 10.4993143081665 1.807617783546448 10.43604755401611 2.680667877197266 10.31124687194824 C 5.039984703063965 9.976147651672363 7.260951042175293 9.185930252075195 9.10341739654541 8.026063919067383 L 9.152467727661133 7.995080471038818 C 9.704851150512695 7.644947052001953 10.22506809234619 7.260130405426025 10.69866752624512 6.851364135742188 L 10.74058437347412 6.815047264099121 C 12.79920101165771 5.026097297668457 13.96191787719727 2.83478045463562 14.10306739807129 0.4780305624008179 L 14.11740112304688 0.0009138977038674057 L 116.4708023071289 1.389770477544516e-05 L 116.4708023071289 5.249713897705078 L 116.4651031494141 5.250697135925293 C 115.7718353271484 5.250697135925293 115.1046981811523 5.360647201538086 114.4822311401367 5.57746410369873 L 114.4003829956055 5.606663703918457 C 113.391487121582 5.974813938140869 112.5911483764648 6.599963665008545 112.1468658447266 7.366930484771729 L 112.0897369384766 7.469913959503174 C 111.8740692138672 7.876964092254639 111.7647018432617 8.307580947875977 111.7647018432617 8.749796867370605 C 111.7647018432617 10.68026351928711 113.8758544921875 12.25081348419189 116.4708023071289 12.25081348419189 L 116.4708023071289 15.75099754333496 L 116.4657974243164 15.75099754333496 C 115.7135696411133 15.75099754333496 114.9954833984375 15.87938022613525 114.3314819335938 16.13256454467773 L 114.2545318603516 16.16254806518555 C 113.4108657836914 16.49859809875488 112.7322845458984 17.00921440124512 112.2921371459961 17.63918113708496 L 112.2495880126953 17.70153045654297 C 111.927848815918 18.18428039550781 111.7647018432617 18.70499801635742 111.7647018432617 19.24921417236328 C 111.7647018432617 21.17966461181641 113.8758544921875 22.75019645690918 116.4708023071289 22.75019645690918 L 116.4708023071289 26.25041389465332 L 116.4657974243164 26.25039672851562 C 115.7123184204102 26.25039672851562 114.9932022094727 26.37916374206543 114.3284530639648 26.63313102722168 L 114.2522659301758 26.66286468505859 C 113.3491516113281 27.02336311340332 112.6172332763672 27.60198020935059 112.1913833618164 28.29214668273926 L 112.1130828857422 28.4262809753418 C 111.8819198608398 28.8468132019043 111.7647018432617 29.29201316833496 111.7647018432617 29.74949645996094 C 111.7647018432617 31.67996406555176 113.8758544921875 33.25051498413086 116.4708023071289 33.25051498413086 L 116.4708023071289 36.75069808959961 L 116.4657974243164 36.75069808959961 C 115.7135696411133 36.75069808959961 114.9954833984375 36.87908172607422 114.3314819335938 37.13226318359375 L 114.2545318603516 37.1622314453125 C 113.4109039306641 37.49826431274414 112.7323150634766 38.00888061523438 112.2921371459961 38.63884735107422 L 112.2495880126953 38.70122909545898 C 111.927848815918 39.18396377563477 111.7647018432617 39.70468139648438 111.7647018432617 40.24889755249023 C 111.7647018432617 42.17936325073242 113.8758544921875 43.74991226196289 116.4708023071289 43.74991226196289 L 116.4708023071289 47.25011444091797 L 116.4651031494141 47.25009536743164 C 115.7718505859375 47.25009536743164 115.1047210693359 47.36004638671875 114.4822311401367 47.57686233520508 L 114.4003829956055 47.60606384277344 C 113.3914642333984 47.9742317199707 112.5911483764648 48.599365234375 112.1468658447266 49.36632919311523 L 112.0897369384766 49.46929550170898 C 111.8740692138672 49.87636566162109 111.7647018432617 50.30698013305664 111.7647018432617 50.74921417236328 C 111.7647018432617 52.67967987060547 113.8758544921875 54.25019836425781 116.4708023071289 54.25019836425781 L 116.4708023071289 57.75039672851562 L 116.4657974243164 57.75039672851562 C 115.7123336791992 57.75039672851562 114.9932174682617 57.87916564941406 114.3284530639648 58.13311386108398 L 114.2522659301758 58.16286468505859 C 113.3491516113281 58.52336502075195 112.6172485351562 59.10198211669922 112.1913833618164 59.79216384887695 L 112.1130828857422 59.92629623413086 C 111.8819198608398 60.34683227539062 111.7647018432617 60.79203033447266 111.7647018432617 61.24951553344727 C 111.7647018432617 63.17946243286133 113.8758544921875 64.74959564208984 116.4708023071289 64.74959564208984 L 116.4708023071289 69.99941253662109 Z" stroke="none" fill="#8499ed"/>
      </g>
    </g>
    <g transform="matrix(1, 0, 0, 1, -22.5, -20.5)" filter="url(#Left)">
      <g id="Left-2" data-name="Left" transform="translate(22.5 20.5)" fill="#edeffe">
        <path d="M 277.5381469726562 68.99929046630859 L 9.999897003173828 68.99929046630859 C 5.037325382232666 68.99929046630859 1.000003933906555 64.96196746826172 1.000003933906555 59.99939727783203 L 1.000003933906555 10.00079154968262 C 1.000003933906555 5.037755966186523 5.037325382232666 1.000006198883057 9.999897003173828 1.000006198883057 L 277.5382690429688 1.000006198883057 C 277.6788330078125 3.606365442276001 278.3656005859375 6.039762496948242 279.50732421875 7.937256336212158 C 280.889892578125 10.23493480682373 282.7799377441406 11.50029182434082 284.8293151855469 11.50029182434082 C 284.8469848632812 11.50029182434082 284.8646240234375 11.50019454956055 284.8822937011719 11.50000095367432 L 284.8822937011719 58.50019073486328 C 284.8646545410156 58.49999618530273 284.8469848632812 58.49990081787109 284.8293151855469 58.49990081787109 C 282.780029296875 58.49990081787109 280.8900146484375 59.76518630981445 279.5073547363281 62.06264877319336 C 278.365234375 63.96049499511719 277.6784057617188 66.39366912841797 277.5381469726562 68.99929046630859 Z" stroke="none"/>
        <path d="M 276.61279296875 67.99930572509766 C 277.18505859375 62.43259429931641 280.1192932128906 58.1906852722168 283.8822937011719 57.57652282714844 L 283.8822937011719 12.42520904541016 C 281.8448791503906 12.09878063201904 280.0129089355469 10.71703052520752 278.6504821777344 8.452841758728027 C 277.5664672851562 6.651267051696777 276.8651428222656 4.410641670227051 276.6144714355469 1.999995231628418 L 9.999916076660156 1.999995231628418 C 5.588762283325195 1.999995231628418 1.999992966651917 5.589148998260498 1.999992966651917 10.00080299377441 L 1.999992966651917 59.9993782043457 C 1.999992966651917 64.41053009033203 5.588762283325195 67.99930572509766 9.999916076660156 67.99930572509766 L 276.61279296875 67.99930572509766 M 278.5113525390625 69.99930572509766 L 9.999916076660156 69.99930572509766 C 4.485954761505127 69.99930572509766 -6.995567673584446e-06 65.51338195800781 -6.995567673584446e-06 59.9993782043457 L -6.995567673584446e-06 10.00080299377441 C -6.995567673584446e-06 4.48634147644043 4.485954761505127 -4.798302143171895e-06 9.999916076660156 -4.798302143171895e-06 L 278.5113525390625 -4.798302143171895e-06 C 278.5118103027344 2.800841331481934 279.1694946289062 5.436187744140625 280.3641967773438 7.421687602996826 C 281.5587768554688 9.406918525695801 283.1445007324219 10.50030326843262 284.829345703125 10.50030326843262 C 285.1824645996094 10.50030326843262 285.5367736816406 10.45141792297363 285.8822937011719 10.35507202148438 L 285.8822937011719 59.64511108398438 C 285.5380249023438 59.549072265625 285.1842346191406 59.49991989135742 284.829345703125 59.49991989135742 C 281.3459167480469 59.49991989135742 278.5116882324219 64.20945739746094 278.5113525390625 69.99830627441406 L 278.5113525390625 69.99930572509766 Z" stroke="none" fill="#8093de"/>
      </g>
    </g>
  </g>
</svg>
